<svg width="250" height="36" viewBox="0 0 250 36" fill="none" xmlns="http://www.w3.org/2000/svg">
<path d="M237.427 1.37027C235.523 1.37027 233.861 1.77533 232.443 2.58544C231.065 3.39555 229.991 4.56571 229.221 6.09591C228.451 7.62612 228.066 9.42637 228.066 11.4967L228.066 26.3751L228.066 32.9385L228.066 35.3615L232.868 35.3615L232.868 11.4967C232.868 9.83143 233.273 8.52625 234.084 7.58112C234.895 6.681 236.009 6.23093 237.427 6.23093L249.066 6.23093L249.066 1.37028L237.427 1.37027Z" fill="currentColor"/>
<path d="M12.3457 35.8971C10.124 35.8971 8.16972 35.5268 6.48287 34.7862C4.79601 34.0457 3.45887 33.0171 2.47144 31.7005C1.48401 30.3428 0.887439 28.7794 0.681725 27.0102H5.55715C5.84515 28.3679 6.56515 29.4582 7.71715 30.2811C8.9103 31.104 10.4532 31.5154 12.3457 31.5154H15.3697C17.5503 31.5154 19.196 31.0422 20.3069 30.0959C21.4589 29.1085 22.0349 27.8125 22.0349 26.208C22.0349 24.6857 21.5412 23.4514 20.5537 22.5051C19.5663 21.5588 18.1469 20.9417 16.2954 20.6537L11.1732 19.8514C7.96401 19.3165 5.53658 18.288 3.89087 16.7657C2.2863 15.2434 1.48401 13.104 1.48401 10.3474C1.48401 7.34396 2.45087 5.01939 4.38458 3.37367C6.35944 1.68682 9.19829 0.843384 12.9012 0.843384H15.308C18.5172 0.843384 21.0886 1.60453 23.0223 3.12681C24.9972 4.6491 26.1903 6.70624 26.6017 9.29824H21.6646C21.4177 8.06396 20.7389 7.07653 19.628 6.33596C18.5583 5.59538 17.1183 5.2251 15.308 5.2251H12.9012C10.7206 5.2251 9.09544 5.67767 8.02572 6.58282C6.95601 7.44682 6.42115 8.70167 6.42115 10.3474C6.42115 11.8285 6.87372 12.96 7.77887 13.7417C8.68401 14.4822 10.0623 14.9965 11.9137 15.2845L16.9743 16.0868C20.348 16.6217 22.8577 17.6914 24.5034 19.296C26.1492 20.8594 26.972 23.0605 26.972 25.8994C26.972 28.9851 25.9846 31.4331 24.0097 33.2434C22.0349 35.0125 19.1549 35.8971 15.3697 35.8971H12.3457Z" fill="currentColor"/>
<path d="M122.593 35.9589C119.96 35.9589 117.677 35.4446 115.743 34.416C113.809 33.3463 112.308 31.8446 111.238 29.9109C110.168 27.9772 109.633 25.7349 109.633 23.184V13.5566C109.633 10.9646 110.168 8.72231 111.238 6.82974C112.308 4.89603 113.809 3.41488 115.743 2.38631C117.677 1.3166 119.96 0.781738 122.593 0.781738C125.227 0.781738 127.51 1.3166 129.444 2.38631C131.377 3.41488 132.879 4.89603 133.949 6.82974C135.019 8.72231 135.553 10.9646 135.553 13.5566V19.5429H114.447V23.184C114.447 25.9406 115.147 28.08 116.545 29.6023C117.985 31.0834 120.001 31.824 122.593 31.824C124.774 31.824 126.543 31.392 127.901 30.528C129.3 29.664 130.184 28.4092 130.555 26.7634H135.43C134.977 29.6023 133.599 31.8446 131.295 33.4903C128.991 35.136 126.091 35.9589 122.593 35.9589ZM130.74 16.272V13.5566C130.74 10.8 130.04 8.68117 128.641 7.20003C127.243 5.67774 125.227 4.9166 122.593 4.9166C120.001 4.9166 117.985 5.67774 116.545 7.20003C115.147 8.68117 114.447 10.8 114.447 13.5566V15.7166H131.233L130.74 16.272Z" fill="currentColor"/>
<path d="M200.602 35.9589C197.969 35.9589 195.686 35.4446 193.752 34.416C191.818 33.3463 190.317 31.8446 189.247 29.9109C188.177 27.9772 187.642 25.7349 187.642 23.184V13.5566C187.642 10.9646 188.177 8.72231 189.247 6.82974C190.317 4.89603 191.818 3.41488 193.752 2.38631C195.686 1.3166 197.969 0.781738 200.602 0.781738C203.235 0.781738 205.519 1.3166 207.453 2.38631C209.386 3.41488 210.888 4.89603 211.958 6.82974C213.027 8.72231 213.562 10.9646 213.562 13.5566V19.5429H192.456V23.184C192.456 25.9406 193.155 28.08 194.554 29.6023C195.994 31.0834 198.01 31.824 200.602 31.824C202.783 31.824 204.552 31.392 205.91 30.528C207.309 29.664 208.193 28.4092 208.563 26.7634H213.439C212.986 29.6023 211.608 31.8446 209.304 33.4903C207 35.136 204.099 35.9589 200.602 35.9589ZM208.749 16.272V13.5566C208.749 10.8 208.049 8.68117 206.65 7.20003C205.251 5.67774 203.235 4.9166 200.602 4.9166C198.01 4.9166 195.994 5.67774 194.554 7.20003C193.155 8.68117 192.456 10.8 192.456 13.5566V15.7166H209.242L208.749 16.272Z" fill="currentColor"/>
<path d="M85.5889 35.9589C82.9558 35.9589 80.6724 35.4446 78.7386 34.416C76.8049 33.3463 75.3032 31.8446 74.2335 29.9109C73.1638 27.9772 72.6289 25.7349 72.6289 23.184V13.5566C72.6289 10.9646 73.1638 8.72231 74.2335 6.82974C75.3032 4.89603 76.8049 3.41488 78.7386 2.38631C80.6724 1.3166 82.9558 0.781738 85.5889 0.781738C88.2221 0.781738 90.5055 1.3166 92.4392 2.38631C94.3729 3.41488 95.8746 4.89603 96.9444 6.82974C98.0141 8.72231 98.5489 10.9646 98.5489 13.5566V19.5429H77.4426V23.184C77.4426 25.9406 78.1421 28.08 79.5409 29.6023C80.9809 31.0834 82.9969 31.824 85.5889 31.824C87.7695 31.824 89.5386 31.392 90.8964 30.528C92.2952 29.664 93.1798 28.4092 93.5501 26.7634H98.4255C97.9729 29.6023 96.5946 31.8446 94.2906 33.4903C91.9866 35.136 89.0861 35.9589 85.5889 35.9589ZM93.7352 16.272V13.5566C93.7352 10.8 93.0358 8.68117 91.6369 7.20003C90.2381 5.67774 88.2221 4.9166 85.5889 4.9166C82.9969 4.9166 80.9809 5.67774 79.5409 7.20003C78.1421 8.68117 77.4426 10.8 77.4426 13.5566V15.7166H94.2289L93.7352 16.272Z" fill="currentColor"/>
<path d="M49.1896 35.3417C47.2848 35.3417 45.6232 34.9366 44.2048 34.1265C42.8269 33.3164 41.7529 32.1462 40.9829 30.616C40.2129 29.0858 39.8279 27.2856 39.8279 25.2153L39.8279 10.3369L39.8279 3.77349L39.8279 1.34167L44.6303 1.34167L44.6303 25.2153C44.6303 26.8805 45.0356 28.1857 45.8461 29.1308C46.6567 30.031 47.7712 30.481 49.1896 30.481L60.8279 30.481L60.8279 35.3417L49.1896 35.3417Z" fill="currentColor"/>
<path d="M171.164 1.3988L159.627 18.061L171.287 35.3417H177.026L165.551 18.061L176.841 1.3988H171.164Z" fill="currentColor"/>
<path d="M147.182 1.33313H152.182V35.39H147.182V1.33313Z" fill="currentColor"/>
</svg>
