<svg width="244" height="41" viewBox="0 0 244 41" fill="none" xmlns="http://www.w3.org/2000/svg">
<path d="M11.664 40.2736C9.44229 40.2736 7.488 39.9033 5.80114 39.1628C4.11429 38.4222 2.77714 37.3936 1.78971 36.077C0.802285 34.7193 0.205714 33.1559 0 31.3868H4.87543C5.16343 32.7445 5.88343 33.8348 7.03543 34.6576C8.22857 35.4805 9.77143 35.8919 11.664 35.8919H14.688C16.8686 35.8919 18.5143 35.4188 19.6251 34.4725C20.7771 33.485 21.3531 32.189 21.3531 30.5845C21.3531 29.0622 20.8594 27.8279 19.872 26.8816C18.8846 25.9353 17.4651 25.3182 15.6137 25.0302L10.4914 24.2279C7.28229 23.6931 4.85486 22.6645 3.20914 21.1422C1.60457 19.6199 0.802285 17.4805 0.802285 14.7239C0.802285 11.7205 1.76914 9.39591 3.70286 7.7502C5.67771 6.06334 8.51657 5.21991 12.2194 5.21991H14.6263C17.8354 5.21991 20.4069 5.98105 22.3406 7.50334C24.3154 9.02563 25.5086 11.0828 25.92 13.6748H20.9829C20.736 12.4405 20.0571 11.4531 18.9463 10.7125C17.8766 9.97191 16.4366 9.60163 14.6263 9.60163H12.2194C10.0389 9.60163 8.41371 10.0542 7.344 10.9593C6.27429 11.8233 5.73943 13.0782 5.73943 14.7239C5.73943 16.2051 6.192 17.3365 7.09714 18.1182C8.00229 18.8588 9.38057 19.3731 11.232 19.6611L16.2926 20.4633C19.6663 20.9982 22.176 22.0679 23.8217 23.6725C25.4674 25.2359 26.2903 27.437 26.2903 30.2759C26.2903 33.3616 25.3029 35.8096 23.328 37.6199C21.3531 39.389 18.4731 40.2736 14.688 40.2736H11.664Z" fill="currentColor"/>
<path d="M123.912 40.3353C121.279 40.3353 118.995 39.8211 117.061 38.7925C115.128 37.7228 113.626 36.2211 112.556 34.2873C111.487 32.3536 110.952 30.1113 110.952 27.5605V17.9331C110.952 15.3411 111.487 13.0988 112.556 11.2062C113.626 9.27249 115.128 7.79135 117.061 6.76278C118.995 5.69306 121.279 5.1582 123.912 5.1582C126.545 5.1582 128.828 5.69306 130.762 6.76278C132.696 7.79135 134.197 9.27249 135.267 11.2062C136.337 13.0988 136.872 15.3411 136.872 17.9331V23.9193H115.765V27.5605C115.765 30.3171 116.465 32.4565 117.864 33.9788C119.304 35.4599 121.32 36.2005 123.912 36.2005C126.092 36.2005 127.861 35.7685 129.219 34.9045C130.618 34.0405 131.503 32.7856 131.873 31.1399H136.748C136.296 33.9788 134.917 36.2211 132.613 37.8668C130.309 39.5125 127.409 40.3353 123.912 40.3353ZM132.058 20.6485V17.9331C132.058 15.1765 131.359 13.0576 129.96 11.5765C128.561 10.0542 126.545 9.29306 123.912 9.29306C121.32 9.29306 119.304 10.0542 117.864 11.5765C116.465 13.0576 115.765 15.1765 115.765 17.9331V20.0931H132.552L132.058 20.6485Z" fill="currentColor"/>
<path d="M197.921 40.3353C195.287 40.3353 193.004 39.8211 191.07 38.7925C189.137 37.7228 187.635 36.2211 186.565 34.2873C185.495 32.3536 184.961 30.1113 184.961 27.5605V17.9331C184.961 15.3411 185.495 13.0988 186.565 11.2062C187.635 9.27249 189.137 7.79135 191.07 6.76278C193.004 5.69306 195.287 5.1582 197.921 5.1582C200.554 5.1582 202.837 5.69306 204.771 6.76278C206.705 7.79135 208.206 9.27249 209.276 11.2062C210.346 13.0988 210.881 15.3411 210.881 17.9331V23.9193H189.774V27.5605C189.774 30.3171 190.474 32.4565 191.873 33.9788C193.313 35.4599 195.329 36.2005 197.921 36.2005C200.101 36.2005 201.87 35.7685 203.228 34.9045C204.627 34.0405 205.511 32.7856 205.882 31.1399H210.757C210.305 33.9788 208.926 36.2211 206.622 37.8668C204.318 39.5125 201.418 40.3353 197.921 40.3353ZM206.067 20.6485V17.9331C206.067 15.1765 205.367 13.0576 203.969 11.5765C202.57 10.0542 200.554 9.29306 197.921 9.29306C195.329 9.29306 193.313 10.0542 191.873 11.5765C190.474 13.0576 189.774 15.1765 189.774 17.9331V20.0931H206.561L206.067 20.6485Z" fill="currentColor"/>
<path d="M86.9072 40.3353C84.2741 40.3353 81.9906 39.8211 80.0569 38.7925C78.1232 37.7228 76.6215 36.2211 75.5518 34.2873C74.4821 32.3536 73.9472 30.1113 73.9472 27.5605V17.9331C73.9472 15.3411 74.4821 13.0988 75.5518 11.2062C76.6215 9.27249 78.1232 7.79135 80.0569 6.76278C81.9906 5.69306 84.2741 5.1582 86.9072 5.1582C89.5404 5.1582 91.8238 5.69306 93.7575 6.76278C95.6912 7.79135 97.1929 9.27249 98.2626 11.2062C99.3323 13.0988 99.8672 15.3411 99.8672 17.9331V23.9193H78.7609V27.5605C78.7609 30.3171 79.4604 32.4565 80.8592 33.9788C82.2992 35.4599 84.3152 36.2005 86.9072 36.2005C89.0878 36.2005 90.8569 35.7685 92.2146 34.9045C93.6135 34.0405 94.4981 32.7856 94.8684 31.1399H99.7438C99.2912 33.9788 97.9129 36.2211 95.6089 37.8668C93.3049 39.5125 90.4044 40.3353 86.9072 40.3353ZM95.0535 20.6485V17.9331C95.0535 15.1765 94.3541 13.0576 92.9552 11.5765C91.5564 10.0542 89.5404 9.29306 86.9072 9.29306C84.3152 9.29306 82.2992 10.0542 80.8592 11.5765C79.4604 13.0576 78.7609 15.1765 78.7609 17.9331V20.0931H95.5472L95.0535 20.6485Z" fill="currentColor"/>
<path d="M54.3462 39.7183C52.4125 39.7183 50.7256 39.348 49.2856 38.6074C47.8867 37.8668 46.7965 36.7971 46.0147 35.3983C45.233 33.9994 44.8422 32.3537 44.8422 30.4611V4.71027H33.5485V0.266846H49.7176V30.4611C49.7176 31.9834 50.129 33.1765 50.9519 34.0405C51.7748 34.8634 52.9062 35.2748 54.3462 35.2748H62.1462V39.7183H54.3462Z" fill="currentColor"/>
<path d="M170.482 5.77533L158.946 22.4375L170.605 39.7182H176.345L164.742 21.9445L176.16 5.77533H170.482Z" fill="currentColor"/>
<path d="M232.746 4.71808C230.841 4.71808 229.179 5.12314 227.761 5.93325C226.383 6.74336 225.309 7.91351 224.539 9.44372C223.769 10.9739 223.384 12.7742 223.384 14.8445V29.7229V36.2863V40.7181H228.186V14.8445C228.186 13.1792 228.592 11.8741 229.402 10.9289C230.213 10.0288 231.327 9.57874 232.746 9.57874H243.384V4.71808H232.746Z" fill="currentColor"/>
<path d="M148.5 4.30969H153.5V39.7666H148.5V4.30969Z" fill="currentColor"/>
</svg>
